<svg width="45" height="43" viewBox="0 0 45 43" fill="none" xmlns="http://www.w3.org/2000/svg">
<path d="M44.6629 18.234C44.8535 18.7634 44.57 19.3458 44.0357 19.5222L30.1747 24.1002C29.5241 24.315 29.2774 25.1057 29.6904 25.6524L38.7989 37.7116C39.1217 38.139 39.0505 38.7448 38.6373 39.0857L34.2519 42.7037C33.8123 43.0663 33.1591 42.9889 32.8165 42.5336L23.4147 30.0409C23.0163 29.5115 22.2225 29.5089 21.8206 30.0357L12.2712 42.5531C11.9301 43.0003 11.2873 43.0783 10.8491 42.7256L6.32986 39.0881C5.90693 38.7477 5.83286 38.1321 6.16299 37.701L15.3925 25.6514C15.8101 25.1062 15.5664 24.3118 14.9149 24.0946L1.18583 19.5183C0.659665 19.3429 0.376746 18.7728 0.555281 18.2477L2.42856 12.7381C2.60699 12.2133 3.17827 11.9337 3.70214 12.1149L17.2909 16.8138C17.9404 17.0384 18.6177 16.556 18.6177 15.8687V1.36914C18.6177 0.816856 19.0654 0.369141 19.6177 0.369141L25.4763 0.369141C26.0286 0.369141 26.4763 0.816856 26.4763 1.36914V15.8687C26.4763 16.556 27.1536 17.0384 27.8031 16.8138L41.4086 12.1091C41.9259 11.9302 42.4909 12.2005 42.6763 12.7155L44.6629 18.234Z" fill="#DB2229"/>
</svg>
