<svg width="144" height="25" viewBox="0 0 144 25" fill="none" xmlns="http://www.w3.org/2000/svg">
<g clip-path="url(#clip0_1146_5069)">
<path d="M17.8445 18.3173C16.8848 18.3173 16.0799 18.1381 15.433 17.7828C14.786 17.4274 14.294 16.9567 13.9629 16.3674C13.6319 15.7782 13.4648 15.1343 13.4648 14.4297C13.4648 13.7737 13.5803 13.1966 13.8141 12.7015C14.048 12.2065 14.3912 11.7843 14.8468 11.435C15.3024 11.0888 15.8642 10.8033 16.5264 10.5907C17.1034 10.4206 17.7534 10.2748 18.4823 10.1472C19.2113 10.0197 19.9766 9.89817 20.7815 9.78579C21.5864 9.67341 22.3821 9.56103 23.1748 9.44866L22.2637 9.95283C22.2789 8.9384 22.0663 8.18213 21.6228 7.6901C21.1794 7.19807 20.417 6.95206 19.3358 6.95206C18.6555 6.95206 18.0328 7.10999 17.4649 7.42587C16.8969 7.74174 16.5021 8.26414 16.2773 8.99307L13.9387 8.27325C14.2576 7.16163 14.868 6.2778 15.7701 5.62176C16.6691 4.96572 17.8688 4.6377 19.3631 4.6377C20.5233 4.6377 21.5317 4.83511 22.3943 5.23299C23.2538 5.62783 23.8825 6.25653 24.2834 7.10999C24.49 7.53521 24.6206 7.98168 24.6661 8.45245C24.7147 8.92322 24.739 9.43347 24.739 9.97713V17.959H22.5188V14.9946L22.9501 15.3773C22.4125 16.3705 21.7322 17.1085 20.903 17.5914C20.0738 18.0744 19.0564 18.3173 17.8476 18.3173H17.8445ZM18.288 16.2642C19.0017 16.2642 19.6122 16.1397 20.1255 15.8845C20.6357 15.6324 21.0488 15.3105 21.3616 14.9187C21.6745 14.5269 21.878 14.1199 21.9721 13.6947C22.1088 13.312 22.1847 12.8807 22.206 12.3978C22.2272 11.9179 22.2363 11.5352 22.2363 11.2467L23.0534 11.5474C22.2606 11.6658 21.5408 11.7752 20.8939 11.8724C20.247 11.9696 19.6608 12.0637 19.1353 12.1548C18.6099 12.2459 18.1452 12.3553 17.7382 12.4859C17.395 12.6074 17.0883 12.7501 16.821 12.9172C16.5537 13.0842 16.3411 13.2907 16.1862 13.5276C16.0313 13.7676 15.9523 14.0592 15.9523 14.4054C15.9523 14.7516 16.0374 15.0523 16.2044 15.3348C16.3715 15.6203 16.6296 15.845 16.9728 16.0121C17.316 16.1791 17.7564 16.2642 18.294 16.2642H18.288Z" fill="white"/>
<path d="M27.3604 17.9594V4.99956H29.6049V8.74446H29.9055V17.9594H27.3604ZM36.469 17.9594V11.5873C36.469 11.0831 36.4265 10.5668 36.3445 10.0353C36.2594 9.50377 36.1015 9.0087 35.8646 8.55311C35.6277 8.09753 35.2966 7.73003 34.8684 7.44757C34.4401 7.16814 33.8813 7.02843 33.1949 7.02843C32.7453 7.02843 32.3232 7.10132 31.9223 7.25015C31.5213 7.39897 31.1721 7.63587 30.8714 7.96389C30.5707 8.29191 30.3338 8.7232 30.1637 9.26079C29.9906 9.79534 29.9055 10.4483 29.9055 11.2168L28.3444 10.6275C28.3444 9.45213 28.5631 8.4134 29.0035 7.51438C29.4439 6.61537 30.0756 5.91073 30.8987 5.40959C31.7218 4.90541 32.718 4.65332 33.8873 4.65332C34.7833 4.65332 35.5366 4.79607 36.144 5.08461C36.7514 5.37314 37.2465 5.75279 37.6262 6.21749C38.0058 6.68522 38.2974 7.19548 38.4948 7.74825C38.6953 8.30102 38.8319 8.84165 38.9018 9.36709C38.9747 9.89557 39.0111 10.3603 39.0111 10.7612V17.9624H36.4659L36.469 17.9594Z" fill="white"/>
<path d="M46.8015 18.3175C45.5927 18.3175 44.5509 18.0168 43.6762 17.4184C42.7984 16.8201 42.1242 16.0001 41.6473 14.9644C41.1705 13.9287 40.9336 12.7624 40.9336 11.4655C40.9336 10.1686 41.1735 8.99622 41.6534 7.9666C42.1333 6.93698 42.8167 6.12604 43.7005 5.53075C44.5843 4.93545 45.6352 4.63477 46.8501 4.63477C48.065 4.63477 49.1037 4.93241 49.939 5.53075C50.7742 6.12604 51.4059 6.94002 51.8342 7.97267C52.2624 9.00533 52.475 10.1686 52.475 11.4655C52.475 12.7624 52.2594 13.9256 51.8281 14.9583C51.3968 15.9909 50.759 16.808 49.9207 17.4124C49.0794 18.0168 48.0407 18.3175 46.8015 18.3175ZM46.9929 24.0791C46.2973 24.0791 45.6231 23.9697 44.9701 23.7541C44.3171 23.5384 43.7248 23.2195 43.1872 22.8004C42.6496 22.3813 42.2062 21.8619 41.8539 21.2453L44.1682 20.0699C44.4477 20.6227 44.8486 21.0267 45.3679 21.2818C45.8873 21.5369 46.437 21.6645 47.0111 21.6645C47.7218 21.6645 48.3323 21.5369 48.8364 21.2848C49.3406 21.0327 49.7233 20.6531 49.9815 20.1519C50.2427 19.6478 50.3672 19.0251 50.3581 18.281V14.6576H50.6588V4.99923H52.879V18.3083C52.879 18.6515 52.8668 18.9796 52.8425 19.2924C52.8182 19.6052 52.7757 19.915 52.7119 20.2279C52.5267 21.0995 52.1774 21.8194 51.6611 22.3873C51.1447 22.9553 50.4887 23.3775 49.6929 23.6599C48.8972 23.9424 47.9951 24.0791 46.9868 24.0791H46.9929ZM47.1478 16.0517C47.9708 16.0517 48.6421 15.8543 49.1645 15.4625C49.6838 15.0707 50.0635 14.53 50.3034 13.8436C50.5434 13.1572 50.6649 12.3645 50.6649 11.4685C50.6649 10.5725 50.5434 9.77982 50.2974 9.09341C50.0544 8.40396 49.6778 7.86941 49.1705 7.48672C48.6633 7.10403 48.0164 6.90965 47.2328 6.90965C46.4006 6.90965 45.7172 7.11314 45.1796 7.52013C44.642 7.92712 44.2442 8.47685 43.986 9.16326C43.7248 9.84968 43.5972 10.6181 43.5972 11.4655C43.5972 12.3129 43.7278 13.0965 43.986 13.789C44.2472 14.4814 44.639 15.0312 45.1614 15.4382C45.6838 15.8452 46.3459 16.0486 47.1478 16.0486V16.0517Z" fill="white"/>
<path d="M75.6363 18.3175C74.3485 18.3175 73.2186 18.035 72.2467 17.4731C71.2748 16.9082 70.5186 16.1215 69.9779 15.1071C69.4373 14.0957 69.167 12.9203 69.167 11.5839C69.167 10.1686 69.4343 8.94155 69.9658 7.89978C70.4973 6.85801 71.2384 6.05619 72.1921 5.48823C73.1427 4.92026 74.2513 4.63477 75.5178 4.63477C76.7843 4.63477 77.9628 4.94153 78.8891 5.55201C79.8155 6.16249 80.511 7.03417 80.9727 8.16402C81.4343 9.29083 81.6135 10.6302 81.5194 12.1823H79.0106V11.2711C78.9924 9.76767 78.7099 8.65301 78.1511 7.93623C77.5953 7.2164 76.7479 6.85498 75.612 6.85498C74.3546 6.85498 73.413 7.24981 72.7813 8.04253C72.1495 8.83524 71.8337 9.98028 71.8337 11.4746C71.8337 12.9689 72.1495 14.0016 72.7813 14.7821C73.413 15.5627 74.3242 15.9515 75.5178 15.9515C76.3014 15.9515 76.9787 15.7723 77.5528 15.4169C78.1238 15.0616 78.5702 14.5513 78.8922 13.8861L81.3523 14.6667C80.8481 15.8269 80.0828 16.7229 79.0592 17.3607C78.0357 17.9955 76.8937 18.3144 75.6393 18.3144L75.6363 18.3175ZM71.0167 12.1853V10.2293H80.268V12.1853H71.0167Z" fill="white"/>
<path d="M88.6813 18.3053C87.105 18.3053 85.8203 17.9591 84.8301 17.2605C83.84 16.565 83.2295 15.584 83.0078 14.3205L85.5743 13.9256C85.7352 14.5969 86.1027 15.1284 86.6829 15.5141C87.263 15.8998 87.9858 16.0972 88.8484 16.0972C89.632 16.0972 90.2455 15.9363 90.692 15.6174C91.1354 15.2985 91.3571 14.8581 91.3571 14.2962C91.3571 13.9682 91.2782 13.7039 91.1233 13.4974C90.9684 13.2939 90.6404 13.0995 90.1453 12.9142C89.6502 12.732 88.8939 12.5042 87.8765 12.2309C86.7649 11.9423 85.881 11.6325 85.2311 11.3015C84.5781 10.9704 84.1164 10.5816 83.84 10.1382C83.5636 9.69478 83.427 9.15719 83.427 8.52241C83.427 7.73881 83.6365 7.05543 84.0526 6.46925C84.4687 5.8861 85.0549 5.43356 85.8112 5.11465C86.5674 4.79574 87.4543 4.63477 88.4687 4.63477C89.4832 4.63477 90.3457 4.78966 91.1202 5.1025C91.8978 5.41229 92.5234 5.85573 93.0033 6.42673C93.4832 6.99772 93.7717 7.66895 93.8659 8.43737L91.2994 8.9051C91.2113 8.28247 90.9198 7.79044 90.4217 7.42901C89.9236 7.06758 89.2827 6.8732 88.49 6.83979C87.7307 6.80638 87.1141 6.93394 86.6403 7.2164C86.1696 7.5019 85.9327 7.89067 85.9327 8.38574C85.9327 8.67427 86.0238 8.91725 86.203 9.11771C86.3822 9.31816 86.7315 9.50951 87.2539 9.69478C87.7732 9.88005 88.5416 10.0987 89.5591 10.3539C90.6464 10.6333 91.512 10.9431 92.1499 11.2832C92.7907 11.6234 93.2493 12.0274 93.5257 12.4951C93.8021 12.9628 93.9388 13.5308 93.9388 14.1929C93.9388 15.4716 93.4741 16.4769 92.5417 17.2058C91.6092 17.9348 90.3214 18.2962 88.6844 18.2962L88.6813 18.3053Z" fill="white"/>
<path d="M96.3506 2.87335V0.4375H98.8593V2.87335H96.3506ZM96.3506 17.9592V4.99941H98.8593V17.9592H96.3506Z" fill="white"/>
<path d="M107.127 18.3175C105.918 18.3175 104.876 18.0168 104.001 17.4184C103.124 16.8201 102.449 16.0001 101.973 14.9644C101.496 13.9287 101.259 12.7624 101.259 11.4655C101.259 10.1686 101.499 8.99622 101.979 7.9666C102.458 6.93698 103.142 6.12604 104.026 5.53075C104.91 4.93545 105.96 4.63477 107.175 4.63477C108.39 4.63477 109.429 4.93241 110.264 5.53075C111.099 6.12604 111.731 6.94002 112.159 7.97267C112.588 9.00533 112.8 10.1686 112.8 11.4655C112.8 12.7624 112.585 13.9256 112.153 14.9583C111.722 15.9909 111.084 16.808 110.246 17.4124C109.405 18.0168 108.366 18.3175 107.127 18.3175ZM107.318 24.0791C106.623 24.0791 105.948 23.9697 105.295 23.7541C104.642 23.5384 104.05 23.2195 103.512 22.8004C102.975 22.3813 102.531 21.8619 102.179 21.2453L104.493 20.0699C104.773 20.6227 105.174 21.0267 105.693 21.2818C106.213 21.5369 106.762 21.6645 107.336 21.6645C108.047 21.6645 108.657 21.5369 109.159 21.2848C109.663 21.0327 110.045 20.6531 110.304 20.1519C110.562 19.6478 110.689 19.0251 110.68 18.281V14.6576H110.981V4.99923H113.201V18.3083C113.201 18.6515 113.189 18.9796 113.165 19.2924C113.14 19.6052 113.095 19.915 113.031 20.2279C112.846 21.0995 112.497 21.8194 111.98 22.3873C111.464 22.9553 110.808 23.3775 110.012 23.6599C109.216 23.9424 108.314 24.0791 107.306 24.0791H107.318ZM107.473 16.0517C108.296 16.0517 108.97 15.8543 109.49 15.4625C110.009 15.0707 110.389 14.53 110.629 13.8436C110.869 13.1572 110.99 12.3645 110.99 11.4685C110.99 10.5725 110.869 9.77982 110.623 9.09341C110.38 8.40396 110.003 7.86941 109.496 7.48672C108.989 7.10403 108.342 6.90965 107.558 6.90965C106.726 6.90965 106.042 7.11314 105.505 7.52013C104.967 7.92712 104.569 8.47685 104.311 9.16326C104.05 9.84968 103.919 10.6181 103.919 11.4655C103.919 12.3129 104.05 13.0965 104.311 13.789C104.569 14.4814 104.964 15.0312 105.487 15.4382C106.009 15.8452 106.674 16.0486 107.473 16.0486V16.0517Z" fill="white"/>
<path d="M116.077 17.9594V4.99956H118.322V8.74446H118.622V17.9594H116.077ZM125.186 17.9594V11.5873C125.186 11.0831 125.143 10.5668 125.058 10.0353C124.973 9.50377 124.815 9.0087 124.578 8.55311C124.341 8.09753 124.01 7.73003 123.582 7.44757C123.154 7.1651 122.595 7.02843 121.909 7.02843C121.459 7.02843 121.037 7.10132 120.636 7.25015C120.235 7.39897 119.886 7.63587 119.585 7.96389C119.284 8.29191 119.051 8.7232 118.877 9.26079C118.704 9.79534 118.619 10.4483 118.619 11.2168L117.058 10.6275C117.058 9.45213 117.277 8.4134 117.717 7.51438C118.158 6.61537 118.789 5.91073 119.612 5.40959C120.436 4.90541 121.432 4.65332 122.601 4.65332C123.497 4.65332 124.25 4.79607 124.858 5.08461C125.465 5.37314 125.96 5.75279 126.34 6.21749C126.72 6.68522 127.011 7.19548 127.209 7.74825C127.409 8.30102 127.546 8.84165 127.616 9.36709C127.688 9.89557 127.725 10.3603 127.725 10.7612V17.9624H125.18L125.186 17.9594Z" fill="white"/>
<path d="M135.379 4.84741L135.594 0L138.68 0.133638L138.459 4.97497L143.121 3.58696L144.002 6.54825L139.342 7.90893L141.924 12.0304L139.306 13.6705L136.761 9.54903L133.839 13.4367L131.37 11.5809L134.292 7.69328L129.754 6.08659L130.811 3.18301L135.464 4.86259" fill="white"/>
<path d="M67.3542 11.4589V0.482422H64.5083V5.73682C64.5083 5.73682 63.3724 4.35488 60.6662 4.46118C57.9418 4.56749 56.4323 6.66013 56.4323 6.66013C53.9084 10.5539 55.2751 14.3565 56.6237 16.1636C57.8142 17.7642 61.0641 19.3314 64.3989 17.6002C67.6852 15.8933 67.3542 11.462 67.3542 11.462V11.4589ZM64.0254 14.5083C63.2448 15.9844 60.3807 16.6161 58.7649 14.6936C57.0398 12.6404 57.9965 9.36022 57.9965 9.36022C57.9965 9.36022 58.5644 6.60546 61.5014 6.70265C64.4232 6.80288 64.6784 9.84922 64.6784 9.84922C65.1825 12.7771 64.0284 14.5053 64.0284 14.5053L64.0254 14.5083Z" fill="white"/>
<path d="M10.9282 6.6571C10.9282 6.6571 9.41872 4.56445 6.69433 4.45815C3.98816 4.35184 2.85528 5.73378 2.85528 5.73378V0.482422H0.00636556V11.462C0.00636556 11.462 -0.324692 15.8963 2.96462 17.6002C6.29645 19.3284 9.54628 17.7612 10.7399 16.1636C12.0854 14.3565 13.4552 10.5508 10.9313 6.66013L10.9282 6.6571ZM8.59867 14.6936C6.98287 16.6161 4.11877 15.9844 3.3382 14.5083C3.3382 14.5083 2.18405 12.7801 2.68823 9.85225C2.68823 9.85225 2.9464 6.80592 5.86517 6.70569C8.80216 6.60546 9.37012 9.36326 9.37012 9.36326C9.37012 9.36326 10.3238 12.6435 8.60171 14.6966L8.59867 14.6936Z" fill="white"/>
</g>
<defs>
<clipPath id="clip0_1146_5069">
<rect width="144.004" height="24.0791" fill="white" transform="translate(-0.00195312)"/>
</clipPath>
</defs>
</svg>
